<?xml version="1.0" encoding="UTF-8" standalone="no"?>
<!DOCTYPE svg PUBLIC "-//W3C//DTD SVG 1.1//EN" "http://www.w3.org/Graphics/SVG/1.1/DTD/svg11.dtd">
<svg width="100%" height="100%" viewBox="0 0 2363 2363" version="1.1" xmlns="http://www.w3.org/2000/svg" xmlns:xlink="http://www.w3.org/1999/xlink" xml:space="preserve" xmlns:serif="http://www.serif.com/" style="fill-rule:evenodd;clip-rule:evenodd;stroke-linejoin:round;stroke-miterlimit:2;">
    <g transform="matrix(1.48976,0,0,1.48976,-564.384,-343.803)">
        <g transform="matrix(958.333,0,0,958.333,325.244,1408.5)">
            <path d="M0.496,-0.367C0.496,-0.354 0.489,-0.347 0.476,-0.347L0.169,-0.347L0.169,-0.02C0.169,-0.007 0.162,-0 0.149,-0L0.098,-0C0.085,-0 0.078,-0.007 0.078,-0.02L0.078,-0.564C0.078,-0.688 0.149,-0.75 0.291,-0.75C0.379,-0.75 0.444,-0.748 0.486,-0.744C0.493,-0.743 0.496,-0.738 0.496,-0.73L0.496,-0.68C0.496,-0.672 0.492,-0.668 0.485,-0.668L0.292,-0.668C0.241,-0.668 0.208,-0.66 0.191,-0.645C0.176,-0.631 0.169,-0.604 0.169,-0.564L0.169,-0.425L0.476,-0.425C0.489,-0.425 0.496,-0.418 0.496,-0.405L0.496,-0.367Z" style="fill-rule:nonzero;"/>
        </g>
        <g transform="matrix(958.333,0,0,958.333,853.286,1408.5)">
            <path d="M0.555,-0.681C0.555,-0.67 0.549,-0.665 0.536,-0.665L0.341,-0.665L0.341,-0.02C0.341,-0.007 0.335,-0 0.323,-0L0.268,-0C0.256,-0 0.25,-0.007 0.25,-0.02L0.25,-0.665L0.055,-0.665C0.042,-0.665 0.035,-0.67 0.035,-0.681L0.035,-0.725C0.035,-0.737 0.042,-0.743 0.055,-0.743L0.536,-0.743C0.549,-0.743 0.555,-0.737 0.555,-0.725L0.555,-0.681Z" style="fill-rule:nonzero;"/>
        </g>
        <g transform="matrix(958.333,0,0,958.333,1418.7,1408.5)">
            <path d="M0.548,-0.52C0.548,-0.371 0.455,-0.296 0.268,-0.296C0.245,-0.296 0.211,-0.298 0.168,-0.301L0.168,-0.02C0.168,-0.007 0.162,-0 0.15,-0L0.096,-0C0.084,-0 0.078,-0.007 0.078,-0.02L0.078,-0.717C0.078,-0.732 0.086,-0.74 0.102,-0.742C0.148,-0.747 0.203,-0.75 0.268,-0.75C0.455,-0.75 0.548,-0.678 0.548,-0.533L0.548,-0.52ZM0.457,-0.533C0.457,-0.583 0.442,-0.619 0.411,-0.641C0.381,-0.662 0.333,-0.673 0.268,-0.673C0.233,-0.673 0.2,-0.672 0.168,-0.669L0.168,-0.376L0.268,-0.372C0.336,-0.372 0.385,-0.384 0.414,-0.407C0.443,-0.43 0.457,-0.467 0.457,-0.52L0.457,-0.533Z" style="fill-rule:nonzero;"/>
        </g>
    </g>
</svg>